<svg xmlns="http://www.w3.org/2000/svg" width="1060" height="810" viewBox="0 0 1060 810" role="img" aria-label="future state swimlane process"><defs><marker id="arrow" viewBox="0 0 10 10" refX="9" refY="5" markerWidth="7" markerHeight="7" orient="auto-start-reverse"><path d="M0 0L10 5L0 10z" fill="#47648a"/></marker></defs><rect width="1060" height="810" fill="white"/><rect x="20" y="20" width="240" height="730" fill="#f5f8ff" stroke="#dbe2eb"/><rect x="20" y="20" width="240" height="45" fill="#edf2f8"/><text x="140" y="49" text-anchor="middle" font-family="Arial" font-size="17" font-weight="bold" fill="#132333">Requester</text><rect x="280" y="20" width="240" height="730" fill="#fafbfd" stroke="#dbe2eb"/><rect x="280" y="20" width="240" height="45" fill="#edf2f8"/><text x="400" y="49" text-anchor="middle" font-family="Arial" font-size="17" font-weight="bold" fill="#132333">Service coordinator</text><rect x="540" y="20" width="240" height="730" fill="#f5f8ff" stroke="#dbe2eb"/><rect x="540" y="20" width="240" height="45" fill="#edf2f8"/><text x="660" y="49" text-anchor="middle" font-family="Arial" font-size="17" font-weight="bold" fill="#132333">ICT technician</text><rect x="800" y="20" width="240" height="730" fill="#fafbfd" stroke="#dbe2eb"/><rect x="800" y="20" width="240" height="45" fill="#edf2f8"/><text x="920" y="49" text-anchor="middle" font-family="Arial" font-size="17" font-weight="bold" fill="#132333">Register / system</text><polyline points="230,142 830,142" fill="none" stroke="#47648a" stroke-width="2" marker-end="url(#arrow)"/><text x="530.0" y="133.0" text-anchor="middle" font-family="Arial" font-size="14" fill="#30466f" style="paint-order:stroke;stroke:white;stroke-width:5px;stroke-linejoin:round">Submit</text><polyline points="925,174 925,220 405,220 405,260" fill="none" stroke="#47648a" stroke-width="2" marker-end="url(#arrow)"/><text x="405" y="211" text-anchor="middle" font-family="Arial" font-size="14" fill="#30466f" style="paint-order:stroke;stroke:white;stroke-width:5px;stroke-linejoin:round">Valid</text><polyline points="925,174 925,195 145,195 145,174" fill="none" stroke="#47648a" stroke-width="2" marker-end="url(#arrow)"/><text x="600" y="178" text-anchor="middle" font-family="Arial" font-size="14" fill="#30466f" style="paint-order:stroke;stroke:white;stroke-width:5px;stroke-linejoin:round">Invalid: correct details</text><polyline points="490,292 570,292" fill="none" stroke="#47648a" stroke-width="2" marker-end="url(#arrow)"/><text x="530.0" y="283.0" text-anchor="middle" font-family="Arial" font-size="14" fill="#30466f" style="paint-order:stroke;stroke:white;stroke-width:5px;stroke-linejoin:round">Assigned</text><polyline points="665,324 665,440" fill="none" stroke="#47648a" stroke-width="2" marker-end="url(#arrow)"/><text x="665.0" y="373.0" text-anchor="middle" font-family="Arial" font-size="14" fill="#30466f" style="paint-order:stroke;stroke:white;stroke-width:5px;stroke-linejoin:round">Work completed</text><polyline points="570,472 230,472" fill="none" stroke="#47648a" stroke-width="2" marker-end="url(#arrow)"/><text x="400.0" y="463.0" text-anchor="middle" font-family="Arial" font-size="14" fill="#30466f" style="paint-order:stroke;stroke:white;stroke-width:5px;stroke-linejoin:round">Awaiting confirmation</text><polyline points="145,504 145,692 830,692" fill="none" stroke="#47648a" stroke-width="2" marker-end="url(#arrow)"/><text x="510" y="675" text-anchor="middle" font-family="Arial" font-size="14" fill="#30466f" style="paint-order:stroke;stroke:white;stroke-width:5px;stroke-linejoin:round">Yes: confirm</text><polyline points="50,472 35,472 35,385 665,385 665,324" fill="none" stroke="#47648a" stroke-width="2" marker-end="url(#arrow)"/><text x="380" y="365" text-anchor="middle" font-family="Arial" font-size="14" fill="#30466f" style="paint-order:stroke;stroke:white;stroke-width:5px;stroke-linejoin:round">No: reason required; return to work</text><rect x="50" y="110" width="180" height="64" rx="7" fill="white" stroke="#174acb" stroke-width="1.5"/><text x="140" y="136" text-anchor="middle" font-family="Arial" font-size="16" fill="#132333">Submit structured fault</text><text x="140" y="157" text-anchor="middle" font-family="Arial" font-size="14" fill="#526170">or assisted intake</text><rect x="830" y="110" width="180" height="64" rx="7" fill="white" stroke="#174acb" stroke-width="1.5"/><text x="920" y="136" text-anchor="middle" font-family="Arial" font-size="16" fill="#132333">Validate details</text><text x="920" y="157" text-anchor="middle" font-family="Arial" font-size="14" fill="#526170">reference and priority</text><rect x="310" y="260" width="180" height="64" rx="7" fill="white" stroke="#174acb" stroke-width="1.5"/><text x="400" y="286" text-anchor="middle" font-family="Arial" font-size="16" fill="#132333">Triage and assign</text><text x="400" y="307" text-anchor="middle" font-family="Arial" font-size="14" fill="#526170">named technician</text><rect x="570" y="260" width="180" height="64" rx="7" fill="white" stroke="#174acb" stroke-width="1.5"/><text x="660" y="286" text-anchor="middle" font-family="Arial" font-size="16" fill="#132333">Start work</text><text x="660" y="307" text-anchor="middle" font-family="Arial" font-size="14" fill="#526170">In progress</text><rect x="570" y="440" width="180" height="64" rx="7" fill="white" stroke="#174acb" stroke-width="1.5"/><text x="660" y="466" text-anchor="middle" font-family="Arial" font-size="16" fill="#132333">Propose resolution</text><text x="660" y="487" text-anchor="middle" font-family="Arial" font-size="14" fill="#526170">record evidence</text><rect x="50" y="440" width="180" height="64" rx="7" fill="white" stroke="#174acb" stroke-width="1.5"/><text x="140" y="466" text-anchor="middle" font-family="Arial" font-size="16" fill="#132333">Service restored?</text><text x="140" y="487" text-anchor="middle" font-family="Arial" font-size="14" fill="#526170">confirm or reject</text><rect x="830" y="660" width="180" height="64" rx="7" fill="white" stroke="#174acb" stroke-width="1.5"/><text x="920" y="686" text-anchor="middle" font-family="Arial" font-size="16" fill="#132333">Close on confirmation</text><text x="920" y="707" text-anchor="middle" font-family="Arial" font-size="14" fill="#526170">review queue trends</text><text x="20" y="782" font-family="Arial" font-size="13" fill="#526170">Proposed process. All state changes append a demo event.</text><text x="20" y="801" font-family="Arial" font-size="13" fill="#526170">Target timer continues while awaiting confirmation. No automatic closure.</text></svg>